Coordinates
version=1
nRows=32
nColumns=12
inDegrees=yes

Units are S.I. units (second, meters, Newtons, ...)
Angles are in degrees

endheader
time	SC_y	SC_z	SC_x	AC_y	AC_z	AC_x	GH_y	GH_z	GH_yy	EL_x	PS_y
       0.0              -34.94          24.89           75.6          66.32         -4.617          14.82          1.039          81.13         -160.9          77.08          110.6
   0.03223              -34.94          24.88          75.59          66.31         -4.619          14.82          1.051          81.12         -160.9          77.08          110.6
   0.06447              -34.94          24.88          75.58          66.31          -4.62          14.82          1.063          81.11         -160.9          77.08          110.6
    0.0967              -34.94          24.88          75.56           66.3         -4.622          14.82          1.076          81.09         -160.9          77.08          110.6
    0.1289              -34.94          24.88          75.55          66.29         -4.624          14.82           1.09          81.08         -160.8          77.08          110.6
    0.1612              -34.94          24.88          75.54          66.29         -4.626          14.82          1.105          81.06         -160.8          77.09          110.6
    0.1934              -34.93          24.87          75.52          66.28         -4.628          14.82          1.121          81.05         -160.8          77.09          110.6
    0.2256              -34.93          24.87          75.51          66.27         -4.631          14.82          1.138          81.03         -160.8          77.09          110.6
    0.2579              -34.93          24.87          75.49          66.26         -4.633          14.83          1.156          81.01         -160.7          77.09          110.6
    0.2901              -34.93          24.87          75.47          66.26         -4.636          14.83          1.175           81.0         -160.7           77.1          110.6
    0.3223              -34.93          24.86          75.45          66.25         -4.639          14.83          1.196          80.98         -160.7           77.1          110.6
    0.3546              -34.93          24.86          75.43          66.24         -4.642          14.83          1.219          80.95         -160.6           77.1          110.6
    0.3868              -34.93          24.86          75.41          66.22         -4.645          14.83          1.243          80.93         -160.6          77.11          110.6
     0.419              -34.93          24.85          75.38          66.21         -4.649          14.83          1.269           80.9         -160.6          77.11          110.6
    0.4513              -34.92          24.85          75.36           66.2         -4.653          14.83          1.298          80.88         -160.5          77.11          110.6
    0.4835              -34.92          24.85          75.33          66.19         -4.657          14.83          1.328          80.85         -160.5          77.12          110.6
    0.5157              -34.92          24.84           75.3          66.17         -4.662          14.84          1.362          80.81         -160.4          77.12          110.6
     0.548              -34.92          24.84          75.26          66.15         -4.667          14.84          1.398          80.78         -160.4          77.13          110.6
    0.5802              -34.92          24.83          75.23          66.14         -4.673          14.84          1.438          80.74         -160.3          77.13          110.6
    0.6124              -34.91          24.83          75.18          66.12         -4.679          14.84          1.482           80.7         -160.2          77.14          110.6
    0.6447              -34.91          24.82          75.14          66.09         -4.685          14.84          1.529          80.65         -160.2          77.15          110.6
    0.6769              -34.91          24.81          75.09          66.07         -4.693          14.85          1.582           80.6         -160.1          77.15          110.6
    0.7091               -34.9           24.8          75.04          66.04         -4.701          14.85           1.64          80.54         -160.0          77.16          110.6
    0.7414               -34.9          24.79          74.98          66.01          -4.71          14.85          1.705          80.48         -159.9          77.17          110.6
    0.7736               -34.9          24.79          74.91          65.98          -4.72          14.86          1.776          80.41         -159.8          77.18          110.6
    0.8058              -34.89          24.77          74.83          65.94         -4.731          14.86          1.856          80.33         -159.6          77.19          110.6
    0.8381              -34.89          24.76          74.75           65.9         -4.743          14.86          1.946          80.24         -159.5          77.21          110.6
    0.8703              -34.88          24.75          74.66          65.86         -4.757          14.87          2.046          80.14         -159.4          77.22          110.6
    0.9025              -34.87          24.73          74.55          65.81         -4.773          14.88           2.16          80.03         -159.2          77.24          110.6
    0.9348              -34.87          24.72          74.43          65.75         -4.791          14.88          2.289          79.91         -159.0          77.25          110.6
     0.967              -34.86           24.7          74.29          65.68         -4.811          14.89          2.437          79.76         -158.7          77.28          110.6
    0.9992              -34.85          24.67          74.13           65.6         -4.835           14.9          2.606           79.6         -158.5           77.3          110.6
